<svg xmlns="http://www.w3.org/2000/svg" width="1700" height="1187.5" viewBox="0 0 1700 1187.5" font-family="Microsoft YaHei, SimHei, PingFang SC, sans-serif">
<rect x="0" y="0" width="1700" height="1187.5" fill="#ffffff"/>
<text x="30" y="38" font-size="24" font-weight="bold" fill="#1f2d3d">BidVolt · Agent 主会话端到端新方案 · 详细流程</text>
<text x="32" y="58" font-size="12.5" fill="#5a6b7d">一个任务 = 一个 Hermes 主会话（PTY 长驻 REPL）：服务端只提供会话基础设施（令牌/事件流/催办/判定），流程全部由主会话自主编排——todo 计划 + delegate_task 子 agent + 验收循环，输出结束回执后由服务端逐份成文交付；旧方案完全隔离。</text>
<rect x="44" y="76" width="208" height="1095.5" rx="10" fill="#eef4fb"/>
<text x="148.0" y="94" font-size="12.5" font-weight="bold" fill="#2f6db3" text-anchor="middle">用户 / 网页端</text>
<rect x="268" y="76" width="252" height="1095.5" rx="10" fill="#f3f6fa"/>
<text x="394.0" y="94" font-size="12.5" font-weight="bold" fill="#3f5f85" text-anchor="middle">API 层（FastAPI · 新接口）</text>
<rect x="536" y="76" width="300" height="1095.5" rx="10" fill="#eef9f0"/>
<text x="686.0" y="94" font-size="12.5" font-weight="bold" fill="#2f7d44" text-anchor="middle">任务执行（Worker · REPL 框架）</text>
<rect x="852" y="76" width="300" height="1095.5" rx="10" fill="#f6f2fb"/>
<text x="1002.0" y="94" font-size="12.5" font-weight="bold" fill="#6a3fa0" text-anchor="middle">Hermes 主会话（自主编排）</text>
<rect x="1168" y="76" width="240" height="1095.5" rx="10" fill="#fdf0f0"/>
<text x="1288.0" y="94" font-size="12.5" font-weight="bold" fill="#a03a3a" text-anchor="middle">子 Agent 群（后台运行）</text>
<rect x="1424" y="76" width="248" height="1095.5" rx="10" fill="#fdf6ec"/>
<text x="1548.0" y="94" font-size="12.5" font-weight="bold" fill="#9a6b1f" text-anchor="middle">数据与存储</text>
<line x1="34" y1="78.0" x2="1682" y2="78.0" stroke="#c9d4e0" stroke-width="1.2" stroke-dasharray="6 5"/>
<text transform="rotate(-90 22 184)" x="22" y="184" font-size="12.5" font-weight="bold" fill="#2f6db3" text-anchor="middle">阶段 A · 发起与启动（含续跑）</text>
<line x1="34" y1="335.0" x2="1682" y2="335.0" stroke="#c9d4e0" stroke-width="1.2" stroke-dasharray="6 5"/>
<text transform="rotate(-90 22 471)" x="22" y="471" font-size="12.5" font-weight="bold" fill="#6a3fa0" text-anchor="middle">阶段 B · 主会话自主编排（todo 计划 + 子 agent 委派 + 验收循环）</text>
<line x1="34" y1="651.0" x2="1682" y2="651.0" stroke="#c9d4e0" stroke-width="1.2" stroke-dasharray="6 5"/>
<text transform="rotate(-90 22 742)" x="22" y="742" font-size="12.5" font-weight="bold" fill="#b06a00" text-anchor="middle">阶段 C · 成果落库与结束判定（回执协议）</text>
<line x1="34" y1="877.0" x2="1682" y2="877.0" stroke="#c9d4e0" stroke-width="1.2" stroke-dasharray="6 5"/>
<text transform="rotate(-90 22 1020)" x="22" y="1020" font-size="12.5" font-weight="bold" fill="#8a1f1f" text-anchor="middle">阶段 D · 成文工具链与交付（主会话自主成文）</text>
<rect x="58" y="108.0" width="180" height="78.0" rx="7" fill="#ffffff" stroke="#2f6db3" stroke-width="1.4"/>
<rect x="58" y="108.0" width="180" height="20" rx="7" fill="#2f6db3" opacity="0.10"/>
<text x="148.0" y="127.0" font-size="12.5" font-weight="bold" fill="#24303c" text-anchor="middle">① 注册/登录/建项目/上传材料</text>
<text x="66" y="148.0" font-size="10.8" fill="#41505f">10 份材料全部解析入库</text>
<text x="66" y="163.5" font-size="10.8" fill="#41505f">企业资料入库（事实表）</text>
<circle cx="71" cy="121.0" r="8.5" fill="#2f6db3"/><text x="71" y="124.5" font-size="10" font-weight="bold" fill="#ffffff" text-anchor="middle">A</text>
<rect x="282" y="108.0" width="224" height="109.0" rx="7" fill="#ffffff" stroke="#2f6db3" stroke-width="1.4"/>
<rect x="282" y="108.0" width="224" height="20" rx="7" fill="#2f6db3" opacity="0.10"/>
<text x="394.0" y="127.0" font-size="12.5" font-weight="bold" fill="#24303c" text-anchor="middle">② POST /agent-run</text>
<text x="290" y="148.0" font-size="10.8" fill="#41505f">task_type=agent_pipeline（新任务类型）</text>
<text x="290" y="163.5" font-size="10.8" fill="#41505f">支持 resume_from_task_id：续跑上一单，</text>
<text x="290" y="179.0" font-size="10.8" fill="#41505f">沿用同一会话上下文（重核现状任务书）</text>
<text x="290" y="194.5" font-size="10.8" fill="#41505f">旧任务类型/旧接口/旧 /demo 不动</text>
<circle cx="295" cy="121.0" r="8.5" fill="#2f6db3"/><text x="295" y="124.5" font-size="10" font-weight="bold" fill="#ffffff" text-anchor="middle">A</text>
<rect x="282" y="229.0" width="224" height="78.0" rx="7" fill="#ffffff" stroke="#2f6db3" stroke-width="1.4"/>
<rect x="282" y="229.0" width="224" height="20" rx="7" fill="#2f6db3" opacity="0.10"/>
<text x="394.0" y="248.0" font-size="12.5" font-weight="bold" fill="#24303c" text-anchor="middle">③ 签发任务级 capability token</text>
<text x="290" y="269.0" font-size="10.8" fill="#41505f">绑定 企业/项目/任务</text>
<text x="290" y="284.5" font-size="10.8" fill="#41505f">MCP 工具白名单</text>
<circle cx="295" cy="242.0" r="8.5" fill="#2f6db3"/><text x="295" y="245.5" font-size="10" font-weight="bold" fill="#ffffff" text-anchor="middle">A</text>
<rect x="550" y="108.0" width="272" height="62.5" rx="7" fill="#ffffff" stroke="#2f6db3" stroke-width="1.4"/>
<rect x="550" y="108.0" width="272" height="20" rx="7" fill="#2f6db3" opacity="0.10"/>
<text x="686.0" y="127.0" font-size="12.5" font-weight="bold" fill="#24303c" text-anchor="middle">④ Worker 领取任务</text>
<text x="558" y="148.0" font-size="10.8" fill="#41505f">租约 + 心跳续期</text>
<circle cx="563" cy="121.0" r="8.5" fill="#2f6db3"/><text x="563" y="124.5" font-size="10" font-weight="bold" fill="#ffffff" text-anchor="middle">A</text>
<rect x="550" y="182.5" width="272" height="93.5" rx="7" fill="#ffffff" stroke="#2f6db3" stroke-width="1.4"/>
<rect x="550" y="182.5" width="272" height="20" rx="7" fill="#2f6db3" opacity="0.10"/>
<text x="686.0" y="201.5" font-size="12.5" font-weight="bold" fill="#24303c" text-anchor="middle">⑤ PTY 长驻启动主会话</text>
<text x="558" y="222.5" font-size="10.8" fill="#41505f">hermes chat --cli</text>
<text x="558" y="238.0" font-size="10.8" fill="#41505f">-t bidvolt,todo,delegation,file,vision</text>
<text x="558" y="253.5" font-size="10.8" fill="#41505f">-s bidvolt-agent-pipeline</text>
<circle cx="563" cy="195.5" r="8.5" fill="#2f6db3"/><text x="563" y="199.0" font-size="10" font-weight="bold" fill="#ffffff" text-anchor="middle">A</text>
<rect x="1438" y="108.0" width="220" height="78.0" rx="7" fill="#ffffff" stroke="#2f6db3" stroke-width="1.4"/>
<rect x="1438" y="108.0" width="220" height="20" rx="7" fill="#2f6db3" opacity="0.10"/>
<text x="1548.0" y="127.0" font-size="12.5" font-weight="bold" fill="#24303c" text-anchor="middle">⑥ 会话基础设施</text>
<text x="1446" y="148.0" font-size="10.8" fill="#41505f">事件流表 AgentSessionEvent</text>
<text x="1446" y="163.5" font-size="10.8" fill="#41505f">Hermes 会话库（可 --resume）</text>
<circle cx="1451" cy="121.0" r="8.5" fill="#2f6db3"/><text x="1451" y="124.5" font-size="10" font-weight="bold" fill="#ffffff" text-anchor="middle">A</text>
<rect x="866" y="365.0" width="272" height="62.5" rx="7" fill="#ffffff" stroke="#6a3fa0" stroke-width="1.4"/>
<rect x="866" y="365.0" width="272" height="20" rx="7" fill="#6a3fa0" opacity="0.10"/>
<text x="1002.0" y="384.0" font-size="12.5" font-weight="bold" fill="#24303c" text-anchor="middle">⑦ todo 建立 A→G 计划</text>
<text x="874" y="405.0" font-size="10.8" fill="#41505f">分析→提取→校验→撰写→校验→评审→交付</text>
<circle cx="879" cy="378.0" r="8.5" fill="#6a3fa0"/><text x="879" y="381.5" font-size="10" font-weight="bold" fill="#ffffff" text-anchor="middle">B</text>
<rect x="866" y="439.5" width="272" height="78.0" rx="7" fill="#ffffff" stroke="#6a3fa0" stroke-width="1.4"/>
<rect x="866" y="439.5" width="272" height="20" rx="7" fill="#6a3fa0" opacity="0.10"/>
<text x="1002.0" y="458.5" font-size="12.5" font-weight="bold" fill="#24303c" text-anchor="middle">⑧ delegate_task 派专职子 agent</text>
<text x="874" y="479.5" font-size="10.8" fill="#41505f">任务书写清：角色+目标+允许工具</text>
<text x="874" y="495.0" font-size="10.8" fill="#41505f">+验收标准+溯源任务 id</text>
<circle cx="879" cy="452.5" r="8.5" fill="#6a3fa0"/><text x="879" y="456.0" font-size="10" font-weight="bold" fill="#ffffff" text-anchor="middle">B</text>
<rect x="1182" y="365.0" width="212" height="78.0" rx="7" fill="#ffffff" stroke="#6a3fa0" stroke-width="1.4"/>
<rect x="1182" y="365.0" width="212" height="20" rx="7" fill="#6a3fa0" opacity="0.10"/>
<text x="1288.0" y="384.0" font-size="12.5" font-weight="bold" fill="#24303c" text-anchor="middle">⑨ 子 agent 后台执行</text>
<text x="1190" y="405.0" font-size="10.8" fill="#41505f">分析 / 提取 / 校验 / 写作 / 评审</text>
<text x="1190" y="420.5" font-size="10.8" fill="#41505f">经 MCP 工具读写（token+RLS 校验）</text>
<circle cx="1195" cy="378.0" r="8.5" fill="#6a3fa0"/><text x="1195" y="381.5" font-size="10" font-weight="bold" fill="#ffffff" text-anchor="middle">B</text>
<rect x="1182" y="455.0" width="212" height="78.0" rx="7" fill="#ffffff" stroke="#6a3fa0" stroke-width="1.4"/>
<rect x="1182" y="455.0" width="212" height="20" rx="7" fill="#6a3fa0" opacity="0.10"/>
<text x="1288.0" y="474.0" font-size="12.5" font-weight="bold" fill="#24303c" text-anchor="middle">⑩ 结果自动回流主会话</text>
<text x="1190" y="495.0" font-size="10.8" fill="#41505f">ASYNC DELEGATION BATCH COMPLETE</text>
<text x="1190" y="510.5" font-size="10.8" fill="#41505f">作为新消息进入会话，无需轮询</text>
<circle cx="1195" cy="468.0" r="8.5" fill="#6a3fa0"/><text x="1195" y="471.5" font-size="10" font-weight="bold" fill="#ffffff" text-anchor="middle">B</text>
<rect x="866" y="529.5" width="272" height="93.5" rx="7" fill="#ffffff" stroke="#6a3fa0" stroke-width="1.4"/>
<rect x="866" y="529.5" width="272" height="20" rx="7" fill="#6a3fa0" opacity="0.10"/>
<text x="1002.0" y="548.5" font-size="12.5" font-weight="bold" fill="#24303c" text-anchor="middle">⑪ 验收循环</text>
<text x="874" y="569.5" font-size="10.8" fill="#41505f">报告过 → 进入下一门</text>
<text x="874" y="585.0" font-size="10.8" fill="#41505f">不过 → 带报告回修再派</text>
<text x="874" y="600.5" font-size="10.8" fill="#41505f">可并行步骤同时推进</text>
<circle cx="879" cy="542.5" r="8.5" fill="#6a3fa0"/><text x="879" y="546.0" font-size="10" font-weight="bold" fill="#ffffff" text-anchor="middle">B</text>
<rect x="1438" y="365.0" width="220" height="78.0" rx="7" fill="#ffffff" stroke="#6a3fa0" stroke-width="1.4"/>
<rect x="1438" y="365.0" width="220" height="20" rx="7" fill="#6a3fa0" opacity="0.10"/>
<text x="1548.0" y="384.0" font-size="12.5" font-weight="bold" fill="#24303c" text-anchor="middle">⑫ 事件流全程落库</text>
<text x="1446" y="405.0" font-size="10.8" fill="#41505f">服务指令/主会话每次回复/委派回执</text>
<text x="1446" y="420.5" font-size="10.8" fill="#41505f">5s 节流批量写入</text>
<circle cx="1451" cy="378.0" r="8.5" fill="#6a3fa0"/><text x="1451" y="381.5" font-size="10" font-weight="bold" fill="#ffffff" text-anchor="middle">B</text>
<rect x="1182" y="681.0" width="212" height="93.5" rx="7" fill="#ffffff" stroke="#b06a00" stroke-width="1.4"/>
<rect x="1182" y="681.0" width="212" height="20" rx="7" fill="#b06a00" opacity="0.10"/>
<text x="1288.0" y="700.0" font-size="12.5" font-weight="bold" fill="#24303c" text-anchor="middle">⑬ 三份成果落库</text>
<text x="1190" y="721.0" font-size="10.8" fill="#41505f">商务标/技术标（supplement_nodes）</text>
<text x="1190" y="736.5" font-size="10.8" fill="#41505f">报价单（sheets 结构）</text>
<text x="1190" y="752.0" font-size="10.8" fill="#41505f">CAS 版本控制</text>
<circle cx="1195" cy="694.0" r="8.5" fill="#b06a00"/><text x="1195" y="697.5" font-size="10" font-weight="bold" fill="#ffffff" text-anchor="middle">C</text>
<rect x="866" y="681.0" width="272" height="78.0" rx="7" fill="#ffffff" stroke="#b06a00" stroke-width="1.4"/>
<rect x="866" y="681.0" width="272" height="20" rx="7" fill="#b06a00" opacity="0.10"/>
<text x="1002.0" y="700.0" font-size="12.5" font-weight="bold" fill="#24303c" text-anchor="middle">⑭ 全部验收门通过</text>
<text x="874" y="721.0" font-size="10.8" fill="#41505f">提取/撰写验收 + 评审</text>
<text x="874" y="736.5" font-size="10.8" fill="#41505f">未闭环项如实标注【待补充】</text>
<circle cx="879" cy="694.0" r="8.5" fill="#b06a00"/><text x="879" y="697.5" font-size="10" font-weight="bold" fill="#ffffff" text-anchor="middle">C</text>
<rect x="866" y="771.0" width="272" height="78.0" rx="7" fill="#ffffff" stroke="#b06a00" stroke-width="1.4"/>
<rect x="866" y="771.0" width="272" height="20" rx="7" fill="#b06a00" opacity="0.10"/>
<text x="1002.0" y="790.0" font-size="12.5" font-weight="bold" fill="#24303c" text-anchor="middle">⑮ 结束回执（协议）</text>
<text x="874" y="811.0" font-size="10.8" fill="#41505f">最后一行：【PIPELINE_COMPLETE】</text>
<text x="874" y="826.5" font-size="10.8" fill="#41505f">或【PIPELINE_INCOMPLETE】原因</text>
<circle cx="879" cy="784.0" r="8.5" fill="#b06a00"/><text x="879" y="787.5" font-size="10" font-weight="bold" fill="#ffffff" text-anchor="middle">C</text>
<rect x="550" y="681.0" width="272" height="93.5" rx="7" fill="#ffffff" stroke="#b06a00" stroke-width="1.4"/>
<rect x="550" y="681.0" width="272" height="20" rx="7" fill="#b06a00" opacity="0.10"/>
<text x="686.0" y="700.0" font-size="12.5" font-weight="bold" fill="#24303c" text-anchor="middle">⑯ 服务端会话库轮询判定</text>
<text x="558" y="721.0" font-size="10.8" fill="#41505f">30s 读 Hermes 会话库</text>
<text x="558" y="736.5" font-size="10.8" fill="#41505f">判据=主会话最后一条回复</text>
<text x="558" y="752.0" font-size="10.8" fill="#41505f">三级催办 · 提前退出自动续跑 · 2h 上限</text>
<circle cx="563" cy="694.0" r="8.5" fill="#b06a00"/><text x="563" y="697.5" font-size="10" font-weight="bold" fill="#ffffff" text-anchor="middle">C</text>
<rect x="1438" y="681.0" width="220" height="78.0" rx="7" fill="#ffffff" stroke="#b06a00" stroke-width="1.4"/>
<rect x="1438" y="681.0" width="220" height="20" rx="7" fill="#b06a00" opacity="0.10"/>
<text x="1548.0" y="700.0" font-size="12.5" font-weight="bold" fill="#24303c" text-anchor="middle">⑰ 任务结果落库</text>
<text x="1446" y="721.0" font-size="10.8" fill="#41505f">outcome=complete/incomplete</text>
<text x="1446" y="736.5" font-size="10.8" fill="#41505f">reason + session_id</text>
<circle cx="1451" cy="694.0" r="8.5" fill="#b06a00"/><text x="1451" y="697.5" font-size="10" font-weight="bold" fill="#ffffff" text-anchor="middle">C</text>
<rect x="866" y="907.0" width="272" height="109.0" rx="7" fill="#ffffff" stroke="#8a1f1f" stroke-width="1.4"/>
<rect x="866" y="907.0" width="272" height="20" rx="7" fill="#8a1f1f" opacity="0.10"/>
<text x="1002.0" y="926.0" font-size="12.5" font-weight="bold" fill="#24303c" text-anchor="middle">⑱ 成文工具链 · 主会话自主成文</text>
<text x="874" y="947.0" font-size="10.8" fill="#41505f">resolve_template_draft 选底稿</text>
<text x="874" y="962.5" font-size="10.8" fill="#41505f">get_template_outline 拿清单</text>
<text x="874" y="978.0" font-size="10.8" fill="#41505f">逐条目 slice→fill→append→verify→seal</text>
<text x="874" y="993.5" font-size="10.8" fill="#41505f">（is_file_item 条目一个都不能少）</text>
<circle cx="879" cy="920.0" r="8.5" fill="#8a1f1f"/><text x="879" y="923.5" font-size="10" font-weight="bold" fill="#ffffff" text-anchor="middle">D</text>
<rect x="550" y="907.0" width="272" height="109.0" rx="7" fill="#ffffff" stroke="#8a1f1f" stroke-width="1.4"/>
<rect x="550" y="907.0" width="272" height="20" rx="7" fill="#8a1f1f" opacity="0.10"/>
<text x="686.0" y="926.0" font-size="12.5" font-weight="bold" fill="#24303c" text-anchor="middle">⑲ 机制保真（服务端工具实现）</text>
<text x="558" y="947.0" font-size="10.8" fill="#41505f">切片=底稿条目区间字节级复制</text>
<text x="558" y="962.5" font-size="10.8" fill="#41505f">填空/追加=修订模式+批注来源</text>
<text x="558" y="978.0" font-size="10.8" fill="#41505f">verify=原文逐字⊂底稿（不过带回修）</text>
<text x="558" y="993.5" font-size="10.8" fill="#41505f">报价单 sheets→xlsx</text>
<circle cx="563" cy="920.0" r="8.5" fill="#8a1f1f"/><text x="563" y="923.5" font-size="10" font-weight="bold" fill="#ffffff" text-anchor="middle">D</text>
<rect x="550" y="1028.0" width="272" height="93.5" rx="7" fill="#ffffff" stroke="#8a1f1f" stroke-width="1.4"/>
<rect x="550" y="1028.0" width="272" height="20" rx="7" fill="#8a1f1f" opacity="0.10"/>
<text x="686.0" y="1047.0" font-size="12.5" font-weight="bold" fill="#24303c" text-anchor="middle">⑳ 打包产物落库</text>
<text x="558" y="1068.0" font-size="10.8" fill="#41505f">package_response_zip：三目录 zip</text>
<text x="558" y="1083.5" font-size="10.8" fill="#41505f">自动附 会话记录/主会话记录.md</text>
<text x="558" y="1099.0" font-size="10.8" fill="#41505f">+ manifest.json（AgentArtifact）</text>
<circle cx="563" cy="1041.0" r="8.5" fill="#8a1f1f"/><text x="563" y="1044.5" font-size="10" font-weight="bold" fill="#ffffff" text-anchor="middle">D</text>
<rect x="282" y="907.0" width="224" height="93.5" rx="7" fill="#ffffff" stroke="#8a1f1f" stroke-width="1.4"/>
<rect x="282" y="907.0" width="224" height="20" rx="7" fill="#8a1f1f" opacity="0.10"/>
<text x="394.0" y="926.0" font-size="12.5" font-weight="bold" fill="#24303c" text-anchor="middle">㉑ response-package 双轨</text>
<text x="290" y="947.0" font-size="10.8" fill="#41505f">新任务：只取主会话打包 zip</text>
<text x="290" y="962.5" font-size="10.8" fill="#41505f">（未打包 → 409 指引重跑）</text>
<text x="290" y="978.0" font-size="10.8" fill="#41505f">旧任务：原服务端成文路径保留</text>
<circle cx="295" cy="920.0" r="8.5" fill="#8a1f1f"/><text x="295" y="923.5" font-size="10" font-weight="bold" fill="#ffffff" text-anchor="middle">D</text>
<rect x="58" y="907.0" width="180" height="78.0" rx="7" fill="#ffffff" stroke="#8a1f1f" stroke-width="1.4"/>
<rect x="58" y="907.0" width="180" height="20" rx="7" fill="#8a1f1f" opacity="0.10"/>
<text x="148.0" y="926.0" font-size="12.5" font-weight="bold" fill="#24303c" text-anchor="middle">㉒ 下载验收</text>
<text x="66" y="947.0" font-size="10.8" fill="#41505f">Word【审阅→所有标记】逐处对照</text>
<text x="66" y="962.5" font-size="10.8" fill="#41505f">控制台回看 + 直接对话（--resume）</text>
<circle cx="71" cy="920.0" r="8.5" fill="#8a1f1f"/><text x="71" y="923.5" font-size="10" font-weight="bold" fill="#ffffff" text-anchor="middle">D</text>
<path d="M 238.0,147.0 L 260.0,147.0 L 260.0,162.5 L 282.0,162.5" fill="none" stroke="#5b7a9d" stroke-width="1.6"/>
<polygon points="282.0,162.5 274.7,165.8 274.7,159.2" fill="#5b7a9d"/>
<path d="M 506.0,162.5 L 394.0,162.5 L 394.0,268.0 L 282.0,268.0" fill="none" stroke="#5b7a9d" stroke-width="1.6"/>
<polygon points="282.0,268.0 289.3,264.7 289.3,271.3" fill="#5b7a9d"/>
<path d="M 506.0,268.0 L 528.0,268.0 L 528.0,139.2 L 550.0,139.2" fill="none" stroke="#5b7a9d" stroke-width="1.6"/>
<polygon points="550.0,139.2 542.7,142.5 542.7,136.0" fill="#5b7a9d"/>
<path d="M 822.0,139.2 L 686.0,139.2 L 686.0,229.2 L 550.0,229.2" fill="none" stroke="#5b7a9d" stroke-width="1.6"/>
<polygon points="550.0,229.2 557.3,226.0 557.3,232.5" fill="#5b7a9d"/>
<path d="M 822.0,229.2 L 1130.0,229.2 L 1130.0,147.0 L 1438.0,147.0" fill="none" stroke="#5b7a9d" stroke-width="1.6"/>
<polygon points="1438.0,147.0 1430.7,150.3 1430.7,143.7" fill="#5b7a9d"/>
<path d="M 822.0,229.2 L 844.0,229.2 L 844.0,396.2 L 866.0,396.2" fill="none" stroke="#5b7a9d" stroke-width="1.6"/>
<polygon points="866.0,396.2 858.7,399.5 858.7,393.0" fill="#5b7a9d"/>
<rect x="810.0" y="379.25" width="68.0" height="15" rx="3" fill="#ffffff" opacity="0.94"/><text x="844.0" y="390.75" font-size="10" fill="#5b7a9d" text-anchor="middle">喂入任务书</text>
<path d="M 822.0,229.2 L 550.0,229.2" fill="none" stroke="#c07800" stroke-width="1.6" stroke-dasharray="6 4"/>
<polygon points="550.0,229.2 557.3,226.0 557.3,232.5" fill="#c07800"/>
<rect x="446.4" y="212.25" width="207.2" height="15" rx="3" fill="#ffffff" opacity="0.94"/><text x="550" y="223.75" font-size="10" fill="#c07800" text-anchor="middle">续跑：--resume 沿用上下文</text>
<path d="M 1138.0,396.2 L 1002.0,396.2 L 1002.0,478.5 L 866.0,478.5" fill="none" stroke="#5b7a9d" stroke-width="1.6"/>
<polygon points="866.0,478.5 873.3,475.2 873.3,481.8" fill="#5b7a9d"/>
<path d="M 1138.0,478.5 L 1160.0,478.5 L 1160.0,404.0 L 1182.0,404.0" fill="none" stroke="#5b7a9d" stroke-width="1.6"/>
<polygon points="1182.0,404.0 1174.7,407.3 1174.7,400.7" fill="#5b7a9d"/>
<rect x="1143.4" y="387.0" width="33.2" height="15" rx="3" fill="#ffffff" opacity="0.94"/><text x="1160.0" y="398.5" font-size="10" fill="#5b7a9d" text-anchor="middle">派单</text>
<path d="M 1394.0,404.0 L 1288.0,404.0 L 1288.0,494.0 L 1182.0,494.0" fill="none" stroke="#5b7a9d" stroke-width="1.6"/>
<polygon points="1182.0,494.0 1189.3,490.7 1189.3,497.3" fill="#5b7a9d"/>
<rect x="1271.4" y="477.0" width="33.2" height="15" rx="3" fill="#ffffff" opacity="0.94"/><text x="1288.0" y="488.5" font-size="10" fill="#5b7a9d" text-anchor="middle">完成</text>
<path d="M 1394.0,494.0 L 1130.0,494.0 L 1130.0,576.2 L 866.0,576.2" fill="none" stroke="#5b7a9d" stroke-width="1.6"/>
<polygon points="866.0,576.2 873.3,573.0 873.3,579.5" fill="#5b7a9d"/>
<rect x="1101.8" y="559.25" width="56.4" height="15" rx="3" fill="#ffffff" opacity="0.94"/><text x="1130.0" y="570.75" font-size="10" fill="#5b7a9d" text-anchor="middle">报告回流</text>
<path d="M 1138.0,576.2 L 1002.0,576.2 L 1002.0,478.5 L 866.0,478.5" fill="none" stroke="#c07800" stroke-width="1.6" stroke-dasharray="6 4"/>
<polygon points="866.0,478.5 873.3,475.2 873.3,481.8" fill="#c07800"/>
<rect x="927.4" y="461.5" width="149.2" height="15" rx="3" fill="#ffffff" opacity="0.94"/><text x="1002.0" y="473.0" font-size="10" fill="#c07800" text-anchor="middle">验收不过 · 带报告回修</text>
<path d="M 1394.0,404.0 L 1438.0,404.0" fill="none" stroke="#5b7a9d" stroke-width="1.6"/>
<polygon points="1438.0,404.0 1430.7,407.3 1430.7,400.7" fill="#5b7a9d"/>
<path d="M 1138.0,396.2 L 1288.0,396.2 L 1288.0,404.0 L 1438.0,404.0" fill="none" stroke="#5b7a9d" stroke-width="1.6"/>
<polygon points="1438.0,404.0 1430.7,407.3 1430.7,400.7" fill="#5b7a9d"/>
<path d="M 1138.0,576.2 L 1160.0,576.2 L 1160.0,727.8 L 1182.0,727.8" fill="none" stroke="#5b7a9d" stroke-width="1.6"/>
<polygon points="1182.0,727.8 1174.7,731.0 1174.7,724.5" fill="#5b7a9d"/>
<rect x="1085.4" y="710.75" width="149.2" height="15" rx="3" fill="#ffffff" opacity="0.94"/><text x="1160.0" y="722.25" font-size="10" fill="#5b7a9d" text-anchor="middle">撰写子 agent 落库</text>
<path d="M 1394.0,727.8 L 1130.0,727.8 L 1130.0,720.0 L 866.0,720.0" fill="none" stroke="#5b7a9d" stroke-width="1.6"/>
<polygon points="866.0,720.0 873.3,716.7 873.3,723.3" fill="#5b7a9d"/>
<path d="M 1138.0,720.0 L 1002.0,720.0 L 1002.0,810.0 L 866.0,810.0" fill="none" stroke="#5b7a9d" stroke-width="1.6"/>
<polygon points="866.0,810.0 873.3,806.7 873.3,813.3" fill="#5b7a9d"/>
<path d="M 1138.0,810.0 L 844.0,810.0 L 844.0,727.8 L 550.0,727.8" fill="none" stroke="#5b7a9d" stroke-width="1.6"/>
<polygon points="550.0,727.8 557.3,724.5 557.3,731.0" fill="#5b7a9d"/>
<rect x="827.4" y="710.75" width="33.2" height="15" rx="3" fill="#ffffff" opacity="0.94"/><text x="844.0" y="722.25" font-size="10" fill="#5b7a9d" text-anchor="middle">回执</text>
<path d="M 822.0,727.8 L 1130.0,727.8 L 1130.0,720.0 L 1438.0,720.0" fill="none" stroke="#5b7a9d" stroke-width="1.6"/>
<polygon points="1438.0,720.0 1430.7,723.3 1430.7,716.7" fill="#5b7a9d"/>
<path d="M 1658.0,720.0 L 1262.0,720.0 L 1262.0,961.5 L 866.0,961.5" fill="none" stroke="#5b7a9d" stroke-width="1.6"/>
<polygon points="866.0,961.5 873.3,958.2 873.3,964.8" fill="#5b7a9d"/>
<rect x="1204.8" y="944.5" width="114.39999999999999" height="15" rx="3" fill="#ffffff" opacity="0.94"/><text x="1262.0" y="956.0" font-size="10" fill="#5b7a9d" text-anchor="middle">主会话进入成文阶段</text>
<path d="M 1138.0,961.5 L 550.0,961.5" fill="none" stroke="#5b7a9d" stroke-width="1.6"/>
<polygon points="550.0,961.5 557.3,958.2 557.3,964.8" fill="#5b7a9d"/>
<rect x="521.8" y="944.5" width="56.4" height="15" rx="3" fill="#ffffff" opacity="0.94"/><text x="550" y="956.0" font-size="10" fill="#5b7a9d" text-anchor="middle">机制调用</text>
<path d="M 822.0,961.5 L 686.0,961.5 L 686.0,1074.8 L 550.0,1074.8" fill="none" stroke="#5b7a9d" stroke-width="1.6"/>
<polygon points="550.0,1074.8 557.3,1071.5 557.3,1078.0" fill="#5b7a9d"/>
<rect x="657.8" y="1057.75" width="56.4" height="15" rx="3" fill="#ffffff" opacity="0.94"/><text x="686.0" y="1069.25" font-size="10" fill="#5b7a9d" text-anchor="middle">封存产物</text>
<path d="M 822.0,1074.8 L 552.0,1074.8 L 552.0,953.8 L 282.0,953.8" fill="none" stroke="#5b7a9d" stroke-width="1.6"/>
<polygon points="282.0,953.8 289.3,950.5 289.3,957.0" fill="#5b7a9d"/>
<path d="M 506.0,953.8 L 282.0,953.8 L 282.0,946.0 L 58.0,946.0" fill="none" stroke="#5b7a9d" stroke-width="1.6"/>
<polygon points="58.0,946.0 65.3,942.7 65.3,949.3" fill="#5b7a9d"/>
<path d="M 822.0,727.8 L 844.0,727.8 L 844.0,576.2 L 866.0,576.2" fill="none" stroke="#c0392b" stroke-width="1.6" stroke-dasharray="6 4"/>
<polygon points="866.0,576.2 858.7,579.5 858.7,573.0" fill="#c0392b"/>
<rect x="781.0" y="559.25" width="126.0" height="15" rx="3" fill="#ffffff" opacity="0.94"/><text x="844.0" y="570.75" font-size="10" fill="#c0392b" text-anchor="middle">无回执 · 三级催办</text>
<path d="M 822.0,727.8 L 844.0,727.8 L 844.0,396.2 L 866.0,396.2" fill="none" stroke="#c07800" stroke-width="1.6" stroke-dasharray="6 4"/>
<polygon points="866.0,396.2 858.7,399.5 858.7,393.0" fill="#c07800"/>
<rect x="734.6" y="379.25" width="218.79999999999998" height="15" rx="3" fill="#ffffff" opacity="0.94"/><text x="844.0" y="390.75" font-size="10" fill="#c07800" text-anchor="middle">提前退出 · --resume 续跑</text>
<path d="M 1658.0,147.0 L 1104.0,147.0 L 1104.0,1074.8 L 550.0,1074.8" fill="none" stroke="#5b7a9d" stroke-width="1.6"/>
<polygon points="550.0,1074.8 557.3,1071.5 557.3,1078.0" fill="#5b7a9d"/>
<rect x="1046.8" y="1057.75" width="114.39999999999999" height="15" rx="3" fill="#ffffff" opacity="0.94"/><text x="1104.0" y="1069.25" font-size="10" fill="#5b7a9d" text-anchor="middle">事件流渲染会话记录</text>
</svg>