<svg xmlns="http://www.w3.org/2000/svg" width="1660" height="1866.5" viewBox="0 0 1660 1866.5" font-family="Microsoft YaHei, SimHei, PingFang SC, sans-serif">
<rect x="0" y="0" width="1660" height="1866.5" fill="#ffffff"/>
<text x="30" y="38" font-size="24" font-weight="bold" fill="#1f2d3d">BidVolt 投标工作台 · 全流程</text>
<text x="32" y="58" font-size="12.5" fill="#5a6b7d">采购文件 → 解析挖掘（要求 / 模板 / 结构 / 评分） → 撰写响应内容 → 校核评审 → 底稿式成文（复制原 docx 整本：落实填空 + 追加补充节，修订模式+批注；无底稿即 409 报错）</text>
<rect x="46" y="76" width="236" height="1774.5" rx="10" fill="#eef4fb"/>
<text x="164.0" y="92" font-size="12.5" font-weight="bold" fill="#2f6db3" text-anchor="middle">用户 / 浏览器</text>
<text x="164.0" y="108" font-size="12.5" font-weight="bold" fill="#2f6db3" text-anchor="middle">（demo 前端）</text>
<rect x="298" y="76" width="288" height="1774.5" rx="10" fill="#f3f6fa"/>
<text x="442.0" y="92" font-size="12.5" font-weight="bold" fill="#3f5f85" text-anchor="middle">API 层</text>
<text x="442.0" y="108" font-size="12.5" font-weight="bold" fill="#3f5f85" text-anchor="middle">（FastAPI）</text>
<rect x="602" y="76" width="320" height="1774.5" rx="10" fill="#eef9f0"/>
<text x="762.0" y="92" font-size="12.5" font-weight="bold" fill="#2f7d44" text-anchor="middle">任务执行</text>
<text x="762.0" y="108" font-size="12.5" font-weight="bold" fill="#2f7d44" text-anchor="middle">（Worker · 异步任务）</text>
<rect x="938" y="76" width="336" height="1774.5" rx="10" fill="#f6f2fb"/>
<text x="1106.0" y="92" font-size="12.5" font-weight="bold" fill="#6a3fa0" text-anchor="middle">智能服务</text>
<text x="1106.0" y="108" font-size="12.5" font-weight="bold" fill="#6a3fa0" text-anchor="middle">（MiniMax-M3 / Hermes Agent）</text>
<rect x="1290" y="76" width="312" height="1774.5" rx="10" fill="#fdf6ec"/>
<text x="1446.0" y="92" font-size="12.5" font-weight="bold" fill="#9a6b1f" text-anchor="middle">数据与存储</text>
<text x="1446.0" y="108" font-size="12.5" font-weight="bold" fill="#9a6b1f" text-anchor="middle">（PostgreSQL+RLS / 对象存储）</text>
<line x1="34" y1="78.0" x2="1642" y2="78.0" stroke="#c9d4e0" stroke-width="1.2" stroke-dasharray="6 5"/>
<text transform="rotate(-90 22 251)" x="22" y="251" font-size="13" font-weight="bold" fill="#2f6db3" text-anchor="middle">阶段 A · 项目与资料准备</text>
<line x1="34" y1="468.5" x2="1642" y2="468.5" stroke="#c9d4e0" stroke-width="1.2" stroke-dasharray="6 5"/>
<text transform="rotate(-90 22 643)" x="22" y="643" font-size="13" font-weight="bold" fill="#2f7d44" text-anchor="middle">阶段 B · 招标解析（从采购文件挖掘要求/模板/结构）</text>
<line x1="34" y1="862.0" x2="1642" y2="862.0" stroke="#c9d4e0" stroke-width="1.2" stroke-dasharray="6 5"/>
<text transform="rotate(-90 22 976)" x="22" y="976" font-size="13" font-weight="bold" fill="#6a3fa0" text-anchor="middle">阶段 C · 撰写响应内容（bid_generate：写什么）</text>
<line x1="34" y1="1134.5" x2="1642" y2="1134.5" stroke="#c9d4e0" stroke-width="1.2" stroke-dasharray="6 5"/>
<text transform="rotate(-90 22 1294)" x="22" y="1294" font-size="13" font-weight="bold" fill="#b06a00" text-anchor="middle">阶段 D · 校核与评审</text>
<line x1="34" y1="1497.0" x2="1642" y2="1497.0" stroke="#c9d4e0" stroke-width="1.2" stroke-dasharray="6 5"/>
<text transform="rotate(-90 22 1670)" x="22" y="1670" font-size="13" font-weight="bold" fill="#8a1f1f" text-anchor="middle">阶段 E · 底稿式成文与交付（装配 Word：写到哪）</text>
<rect x="60" y="108.0" width="208" height="78.0" rx="7" fill="#ffffff" stroke="#2f6db3" stroke-width="1.4"/>
<rect x="60" y="108.0" width="208" height="20" rx="7" fill="#2f6db3" opacity="0.10"/>
<text x="164.0" y="127.0" font-size="12.5" font-weight="bold" fill="#24303c" text-anchor="middle">① 注册 / 登录</text>
<text x="68" y="148.0" font-size="10.8" fill="#41505f">进入企业空间</text>
<text x="68" y="163.5" font-size="10.8" fill="#41505f">租户数据隔离（RLS）</text>
<circle cx="73" cy="121.0" r="8.5" fill="#2f6db3"/><text x="73" y="124.5" font-size="10" font-weight="bold" fill="#ffffff" text-anchor="middle">A</text>
<rect x="60" y="198.0" width="208" height="62.5" rx="7" fill="#ffffff" stroke="#2f6db3" stroke-width="1.4"/>
<rect x="60" y="198.0" width="208" height="20" rx="7" fill="#2f6db3" opacity="0.10"/>
<text x="164.0" y="217.0" font-size="12.5" font-weight="bold" fill="#24303c" text-anchor="middle">② 创建项目</text>
<text x="68" y="238.0" font-size="10.8" fill="#41505f">名称 / 编号 / 招标人</text>
<circle cx="73" cy="211.0" r="8.5" fill="#2f6db3"/><text x="73" y="214.5" font-size="10" font-weight="bold" fill="#ffffff" text-anchor="middle">A</text>
<rect x="60" y="272.5" width="208" height="78.0" rx="7" fill="#ffffff" stroke="#2f6db3" stroke-width="1.4"/>
<rect x="60" y="272.5" width="208" height="20" rx="7" fill="#2f6db3" opacity="0.10"/>
<text x="164.0" y="291.5" font-size="12.5" font-weight="bold" fill="#24303c" text-anchor="middle">③ 上传采购文件</text>
<text x="68" y="312.5" font-size="10.8" fill="#41505f">docx/pdf/txt/xlsx</text>
<text x="68" y="328.0" font-size="10.8" fill="#41505f">pptx/.doc/html</text>
<circle cx="73" cy="285.5" r="8.5" fill="#2f6db3"/><text x="73" y="289.0" font-size="10" font-weight="bold" fill="#ffffff" text-anchor="middle">A</text>
<rect x="312" y="108.0" width="260" height="93.5" rx="7" fill="#ffffff" stroke="#2f6db3" stroke-width="1.4"/>
<rect x="312" y="108.0" width="260" height="20" rx="7" fill="#2f6db3" opacity="0.10"/>
<text x="442.0" y="127.0" font-size="12.5" font-weight="bold" fill="#24303c" text-anchor="middle">④ 安全校验</text>
<text x="320" y="148.0" font-size="10.8" fill="#41505f">扩展名 · 内容 · 大小</text>
<text x="320" y="163.5" font-size="10.8" fill="#41505f">解析失败 → 上传即拒绝</text>
<text x="320" y="179.0" font-size="10.8" fill="#41505f">（红字原因，不入列表）</text>
<circle cx="325" cy="121.0" r="8.5" fill="#2f6db3"/><text x="325" y="124.5" font-size="10" font-weight="bold" fill="#ffffff" text-anchor="middle">A</text>
<rect x="1304" y="108.0" width="284" height="78.0" rx="7" fill="#ffffff" stroke="#2f6db3" stroke-width="1.4"/>
<rect x="1304" y="108.0" width="284" height="20" rx="7" fill="#2f6db3" opacity="0.10"/>
<text x="1446.0" y="127.0" font-size="12.5" font-weight="bold" fill="#24303c" text-anchor="middle">⑤ 对象存储落库</text>
<text x="1312" y="148.0" font-size="10.8" fill="#41505f">内容去重（sha256）</text>
<text x="1312" y="163.5" font-size="10.8" fill="#41505f">FileObject 记录</text>
<circle cx="1317" cy="121.0" r="8.5" fill="#2f6db3"/><text x="1317" y="124.5" font-size="10" font-weight="bold" fill="#ffffff" text-anchor="middle">A</text>
<rect x="60" y="362.5" width="208" height="78.0" rx="7" fill="#ffffff" stroke="#2f6db3" stroke-width="1.4"/>
<rect x="60" y="362.5" width="208" height="20" rx="7" fill="#2f6db3" opacity="0.10"/>
<text x="164.0" y="381.5" font-size="12.5" font-weight="bold" fill="#24303c" text-anchor="middle">⑥ 企业资料导入与分类</text>
<text x="68" y="402.5" font-size="10.8" fill="#41505f">营业执照 / 资质 / 业绩</text>
<text x="68" y="418.0" font-size="10.8" fill="#41505f">资料匹配（MCP）</text>
<circle cx="73" cy="375.5" r="8.5" fill="#2f6db3"/><text x="73" y="379.0" font-size="10" font-weight="bold" fill="#ffffff" text-anchor="middle">A</text>
<rect x="616" y="498.5" width="292" height="78.0" rx="7" fill="#ffffff" stroke="#2f7d44" stroke-width="1.4"/>
<rect x="616" y="498.5" width="292" height="20" rx="7" fill="#2f7d44" opacity="0.10"/>
<text x="762.0" y="517.5" font-size="12.5" font-weight="bold" fill="#24303c" text-anchor="middle">⑦ 逐文件解析 → 文本块</text>
<text x="624" y="538.5" font-size="10.8" fill="#41505f">DocBlock 落库</text>
<text x="624" y="554.0" font-size="10.8" fill="#41505f">.doc 经 LibreOffice</text>
<circle cx="629" cy="511.5" r="8.5" fill="#2f7d44"/><text x="629" y="515.0" font-size="10" font-weight="bold" fill="#ffffff" text-anchor="middle">B</text>
<rect x="952" y="498.5" width="308" height="109.0" rx="7" fill="#ffffff" stroke="#2f7d44" stroke-width="1.4"/>
<rect x="952" y="498.5" width="308" height="20" rx="7" fill="#2f7d44" opacity="0.10"/>
<text x="1106.0" y="517.5" font-size="12.5" font-weight="bold" fill="#24303c" text-anchor="middle">⑧ AI 抽取招标要求</text>
<text x="960" y="538.5" font-size="10.8" fill="#41505f">资格/评分/否决/技术</text>
<text x="960" y="554.0" font-size="10.8" fill="#41505f">报价规则/材料清单</text>
<text x="960" y="569.5" font-size="10.8" fill="#41505f">JSON 重试 · 529 重试</text>
<text x="960" y="585.0" font-size="10.8" fill="#41505f">失败 → 降级 + 显式警示</text>
<circle cx="965" cy="511.5" r="8.5" fill="#2f7d44"/><text x="965" y="515.0" font-size="10" font-weight="bold" fill="#ffffff" text-anchor="middle">B</text>
<rect x="616" y="588.5" width="292" height="93.5" rx="7" fill="#ffffff" stroke="#2f7d44" stroke-width="1.4"/>
<rect x="616" y="588.5" width="292" height="20" rx="7" fill="#2f7d44" opacity="0.10"/>
<text x="762.0" y="607.5" font-size="12.5" font-weight="bold" fill="#24303c" text-anchor="middle">⑨ 模板清单确定性提取</text>
<text x="624" y="628.5" font-size="10.8" fill="#41505f">“响应文件格式”区间</text>
<text x="624" y="644.0" font-size="10.8" fill="#41505f">条目 + 表格逐字落库</text>
<text x="624" y="659.5" font-size="10.8" fill="#41505f">（doc_template）</text>
<circle cx="629" cy="601.5" r="8.5" fill="#2f7d44"/><text x="629" y="605.0" font-size="10" font-weight="bold" fill="#ffffff" text-anchor="middle">B</text>
<rect x="952" y="619.5" width="308" height="109.0" rx="7" fill="#ffffff" stroke="#2f7d44" stroke-width="1.4"/>
<rect x="952" y="619.5" width="308" height="20" rx="7" fill="#2f7d44" opacity="0.10"/>
<text x="1106.0" y="638.5" font-size="12.5" font-weight="bold" fill="#24303c" text-anchor="middle">⑩ Hermes 双通道复核</text>
<text x="960" y="659.5" font-size="10.8" fill="#41505f">MCP 工具补抽要求</text>
<text x="960" y="675.0" font-size="10.8" fill="#41505f">模板清单核对补缺</text>
<text x="960" y="690.5" font-size="10.8" fill="#41505f">只登记条目，不写内容</text>
<text x="960" y="706.0" font-size="10.8" fill="#41505f">评分表/否决条款不登记</text>
<circle cx="965" cy="632.5" r="8.5" fill="#2f7d44"/><text x="965" y="636.0" font-size="10" font-weight="bold" fill="#ffffff" text-anchor="middle">B</text>
<rect x="952" y="740.5" width="308" height="93.5" rx="7" fill="#ffffff" stroke="#2f7d44" stroke-width="1.4"/>
<rect x="952" y="740.5" width="308" height="20" rx="7" fill="#2f7d44" opacity="0.10"/>
<text x="1106.0" y="759.5" font-size="12.5" font-weight="bold" fill="#24303c" text-anchor="middle">⑪ 结构 + 评分细则</text>
<text x="960" y="780.5" font-size="10.8" fill="#41505f">doc_structure 三部分</text>
<text x="960" y="796.0" font-size="10.8" fill="#41505f">（价格/商务/技术）</text>
<text x="960" y="811.5" font-size="10.8" fill="#41505f">score_rule 分值权重</text>
<circle cx="965" cy="753.5" r="8.5" fill="#2f7d44"/><text x="965" y="757.0" font-size="10" font-weight="bold" fill="#ffffff" text-anchor="middle">B</text>
<rect x="616" y="694.0" width="292" height="78.0" rx="7" fill="#ffffff" stroke="#2f7d44" stroke-width="1.4"/>
<rect x="616" y="694.0" width="292" height="20" rx="7" fill="#2f7d44" opacity="0.10"/>
<text x="762.0" y="713.0" font-size="12.5" font-weight="bold" fill="#24303c" text-anchor="middle">⑫ 项目名 / 招标人派生</text>
<text x="624" y="734.0" font-size="10.8" fill="#41505f">封面确定性正则优先</text>
<text x="624" y="749.5" font-size="10.8" fill="#41505f">LLM 小窗口兜底</text>
<circle cx="629" cy="707.0" r="8.5" fill="#2f7d44"/><text x="629" y="710.5" font-size="10" font-weight="bold" fill="#ffffff" text-anchor="middle">B</text>
<rect x="616" y="892.0" width="292" height="93.5" rx="7" fill="#ffffff" stroke="#6a3fa0" stroke-width="1.4"/>
<rect x="616" y="892.0" width="292" height="20" rx="7" fill="#6a3fa0" opacity="0.10"/>
<text x="762.0" y="911.0" font-size="12.5" font-weight="bold" fill="#24303c" text-anchor="middle">⑬ 硬性自检</text>
<text x="624" y="932.0" font-size="10.8" fill="#41505f">要求为 0 → 任务失败</text>
<text x="624" y="947.5" font-size="10.8" fill="#41505f">指引回【招标解析】</text>
<text x="624" y="963.0" font-size="10.8" fill="#41505f">不静默兜底</text>
<circle cx="629" cy="905.0" r="8.5" fill="#6a3fa0"/><text x="629" y="908.5" font-size="10" font-weight="bold" fill="#ffffff" text-anchor="middle">C</text>
<rect x="616" y="997.5" width="292" height="93.5" rx="7" fill="#ffffff" stroke="#6a3fa0" stroke-width="1.4"/>
<rect x="616" y="997.5" width="292" height="20" rx="7" fill="#6a3fa0" opacity="0.10"/>
<text x="762.0" y="1016.5" font-size="12.5" font-weight="bold" fill="#24303c" text-anchor="middle">⑭ 底稿源解析</text>
<text x="624" y="1037.5" font-size="10.8" fill="#41505f">项目 docx 优先</text>
<text x="624" y="1053.0" font-size="10.8" fill="#41505f">非 docx → 原文逐字</text>
<text x="624" y="1068.5" font-size="10.8" fill="#41505f">构造底稿 docx 落库</text>
<circle cx="629" cy="1010.5" r="8.5" fill="#6a3fa0"/><text x="629" y="1014.0" font-size="10" font-weight="bold" fill="#ffffff" text-anchor="middle">C</text>
<rect x="952" y="892.0" width="308" height="93.5" rx="7" fill="#ffffff" stroke="#6a3fa0" stroke-width="1.4"/>
<rect x="952" y="892.0" width="308" height="20" rx="7" fill="#6a3fa0" opacity="0.10"/>
<text x="1106.0" y="911.0" font-size="12.5" font-weight="bold" fill="#24303c" text-anchor="middle">⑮ 撰写路径</text>
<text x="960" y="932.0" font-size="10.8" fill="#41505f">Hermes Agent（MCP）</text>
<text x="960" y="947.5" font-size="10.8" fill="#41505f">质量门：版本 + 篇幅</text>
<text x="960" y="963.0" font-size="10.8" fill="#41505f">不达标 → 回退内嵌</text>
<circle cx="965" cy="905.0" r="8.5" fill="#6a3fa0"/><text x="965" y="908.5" font-size="10" font-weight="bold" fill="#ffffff" text-anchor="middle">C</text>
<rect x="952" y="997.5" width="308" height="109.0" rx="7" fill="#ffffff" stroke="#6a3fa0" stroke-width="1.4"/>
<rect x="952" y="997.5" width="308" height="20" rx="7" fill="#6a3fa0" opacity="0.10"/>
<text x="1106.0" y="1016.5" font-size="12.5" font-weight="bold" fill="#24303c" text-anchor="middle">⑯ 内嵌闭环</text>
<text x="960" y="1037.5" font-size="10.8" fill="#41505f">模板骨架 + 填空</text>
<text x="960" y="1053.0" font-size="10.8" fill="#41505f">分章并行生成</text>
<text x="960" y="1068.5" font-size="10.8" fill="#41505f">追加“补充响应内容”</text>
<text x="960" y="1084.0" font-size="10.8" fill="#41505f">Agent 自检补缺 ≤3 轮</text>
<circle cx="965" cy="1010.5" r="8.5" fill="#6a3fa0"/><text x="965" y="1014.0" font-size="10" font-weight="bold" fill="#ffffff" text-anchor="middle">C</text>
<rect x="1304" y="892.0" width="284" height="93.5" rx="7" fill="#ffffff" stroke="#6a3fa0" stroke-width="1.4"/>
<rect x="1304" y="892.0" width="284" height="20" rx="7" fill="#6a3fa0" opacity="0.10"/>
<text x="1446.0" y="911.0" font-size="12.5" font-weight="bold" fill="#24303c" text-anchor="middle">⑰ 三份成果内容落库</text>
<text x="1312" y="932.0" font-size="10.8" fill="#41505f">商务标 / 技术标内容</text>
<text x="1312" y="947.5" font-size="10.8" fill="#41505f">报价单（只建议不落库）</text>
<text x="1312" y="963.0" font-size="10.8" fill="#41505f">（此时还不是 Word 文件）</text>
<circle cx="1317" cy="905.0" r="8.5" fill="#6a3fa0"/><text x="1317" y="908.5" font-size="10" font-weight="bold" fill="#ffffff" text-anchor="middle">C</text>
<rect x="616" y="1164.5" width="292" height="93.5" rx="7" fill="#ffffff" stroke="#b06a00" stroke-width="1.4"/>
<rect x="616" y="1164.5" width="292" height="20" rx="7" fill="#b06a00" opacity="0.10"/>
<text x="762.0" y="1183.5" font-size="12.5" font-weight="bold" fill="#24303c" text-anchor="middle">⑱ 终检 run_final_check</text>
<text x="624" y="1204.5" font-size="10.8" fill="#41505f">完整性 / 结构合规</text>
<text x="624" y="1220.0" font-size="10.8" fill="#41505f">要求覆盖 / 文档质量</text>
<text x="624" y="1235.5" font-size="10.8" fill="#41505f">【待补充】逐处列出</text>
<circle cx="629" cy="1177.5" r="8.5" fill="#b06a00"/><text x="629" y="1181.0" font-size="10" font-weight="bold" fill="#ffffff" text-anchor="middle">D</text>
<rect x="616" y="1270.0" width="292" height="93.5" rx="7" fill="#ffffff" stroke="#b06a00" stroke-width="1.4"/>
<rect x="616" y="1270.0" width="292" height="20" rx="7" fill="#b06a00" opacity="0.10"/>
<text x="762.0" y="1289.0" font-size="12.5" font-weight="bold" fill="#24303c" text-anchor="middle">⑲ 模拟评标</text>
<text x="624" y="1310.0" font-size="10.8" fill="#41505f">有细则 → 按细则打分</text>
<text x="624" y="1325.5" font-size="10.8" fill="#41505f">无细则 → 完整性检查</text>
<text x="624" y="1341.0" font-size="10.8" fill="#41505f">不冒充招标得分</text>
<circle cx="629" cy="1283.0" r="8.5" fill="#b06a00"/><text x="629" y="1286.5" font-size="10" font-weight="bold" fill="#ffffff" text-anchor="middle">D</text>
<rect x="616" y="1375.5" width="292" height="93.5" rx="7" fill="#ffffff" stroke="#b06a00" stroke-width="1.4"/>
<rect x="616" y="1375.5" width="292" height="20" rx="7" fill="#b06a00" opacity="0.10"/>
<text x="762.0" y="1394.5" font-size="12.5" font-weight="bold" fill="#24303c" text-anchor="middle">⑳ 建议 → 确认 → 重审</text>
<text x="624" y="1415.5" font-size="10.8" fill="#41505f">逐条建议修改</text>
<text x="624" y="1431.0" font-size="10.8" fill="#41505f">确认全部 / 重审受影响项</text>
<text x="624" y="1446.5" font-size="10.8" fill="#41505f">评审快照</text>
<circle cx="629" cy="1388.5" r="8.5" fill="#b06a00"/><text x="629" y="1392.0" font-size="10" font-weight="bold" fill="#ffffff" text-anchor="middle">D</text>
<rect x="312" y="1527.0" width="260" height="78.0" rx="7" fill="#ffffff" stroke="#8a1f1f" stroke-width="1.4"/>
<rect x="312" y="1527.0" width="260" height="20" rx="7" fill="#8a1f1f" opacity="0.10"/>
<text x="442.0" y="1546.0" font-size="12.5" font-weight="bold" fill="#24303c" text-anchor="middle">㉑ 复制采购文件原 docx</text>
<text x="320" y="1567.0" font-size="10.8" fill="#41505f">整本保留：不抽取</text>
<text x="320" y="1582.5" font-size="10.8" fill="#41505f">不裁剪 · 不删改</text>
<circle cx="325" cy="1540.0" r="8.5" fill="#8a1f1f"/><text x="325" y="1543.5" font-size="10" font-weight="bold" fill="#ffffff" text-anchor="middle">E</text>
<rect x="616" y="1527.0" width="292" height="124.5" rx="7" fill="#ffffff" stroke="#8a1f1f" stroke-width="1.4"/>
<rect x="616" y="1527.0" width="292" height="20" rx="7" fill="#8a1f1f" opacity="0.10"/>
<text x="762.0" y="1546.0" font-size="12.5" font-weight="bold" fill="#24303c" text-anchor="middle">㉒ 在底稿原文件上落实填空</text>
<text x="624" y="1567.0" font-size="10.8" fill="#41505f">把 C 阶段确定的内容</text>
<text x="624" y="1582.5" font-size="10.8" fill="#41505f">写进原 Word 文件对应位置</text>
<text x="624" y="1598.0" font-size="10.8" fill="#41505f">（占位符/下划线/表格空位）</text>
<text x="624" y="1613.5" font-size="10.8" fill="#41505f">未知空位原位【待补充】</text>
<text x="624" y="1629.0" font-size="10.8" fill="#41505f">全程修订模式+批注来源</text>
<circle cx="629" cy="1540.0" r="8.5" fill="#8a1f1f"/><text x="629" y="1543.5" font-size="10" font-weight="bold" fill="#ffffff" text-anchor="middle">E</text>
<rect x="616" y="1663.5" width="292" height="78.0" rx="7" fill="#ffffff" stroke="#8a1f1f" stroke-width="1.4"/>
<rect x="616" y="1663.5" width="292" height="20" rx="7" fill="#8a1f1f" opacity="0.10"/>
<text x="762.0" y="1682.5" font-size="12.5" font-weight="bold" fill="#24303c" text-anchor="middle">㉓ 文末追加补充节</text>
<text x="624" y="1703.5" font-size="10.8" fill="#41505f">“补充响应内容”</text>
<text x="624" y="1719.0" font-size="10.8" fill="#41505f">（响应正文）</text>
<circle cx="629" cy="1676.5" r="8.5" fill="#8a1f1f"/><text x="629" y="1680.0" font-size="10" font-weight="bold" fill="#ffffff" text-anchor="middle">E</text>
<rect x="312" y="1617.0" width="260" height="78.0" rx="7" fill="#ffffff" stroke="#8a1f1f" stroke-width="1.4"/>
<rect x="312" y="1617.0" width="260" height="20" rx="7" fill="#8a1f1f" opacity="0.10"/>
<text x="442.0" y="1636.0" font-size="12.5" font-weight="bold" fill="#24303c" text-anchor="middle">㉔ 交付包</text>
<text x="320" y="1657.0" font-size="10.8" fill="#41505f">docx · xlsx · manifest</text>
<text x="320" y="1672.5" font-size="10.8" fill="#41505f">签名下载 URL</text>
<circle cx="325" cy="1630.0" r="8.5" fill="#8a1f1f"/><text x="325" y="1633.5" font-size="10" font-weight="bold" fill="#ffffff" text-anchor="middle">E</text>
<rect x="312" y="1707.0" width="260" height="93.5" rx="7" fill="#ffffff" stroke="#8a1f1f" stroke-width="1.4"/>
<rect x="312" y="1707.0" width="260" height="20" rx="7" fill="#8a1f1f" opacity="0.10"/>
<text x="442.0" y="1726.0" font-size="12.5" font-weight="bold" fill="#24303c" text-anchor="middle">㉕ 红线（无回退）</text>
<text x="320" y="1747.0" font-size="10.8" fill="#41505f">无底稿 / 底稿损坏 →</text>
<text x="320" y="1762.5" font-size="10.8" fill="#41505f">明确 409 报错</text>
<text x="320" y="1778.0" font-size="10.8" fill="#41505f">绝不节点重排版</text>
<circle cx="325" cy="1720.0" r="8.5" fill="#8a1f1f"/><text x="325" y="1723.5" font-size="10" font-weight="bold" fill="#ffffff" text-anchor="middle">E</text>
<rect x="60" y="1527.0" width="208" height="78.0" rx="7" fill="#ffffff" stroke="#8a1f1f" stroke-width="1.4"/>
<rect x="60" y="1527.0" width="208" height="20" rx="7" fill="#8a1f1f" opacity="0.10"/>
<text x="164.0" y="1546.0" font-size="12.5" font-weight="bold" fill="#24303c" text-anchor="middle">㉖ 下载验收</text>
<text x="68" y="1567.0" font-size="10.8" fill="#41505f">整本底稿 + 填空</text>
<text x="68" y="1582.5" font-size="10.8" fill="#41505f">+ 补充响应内容</text>
<circle cx="73" cy="1540.0" r="8.5" fill="#8a1f1f"/><text x="73" y="1543.5" font-size="10" font-weight="bold" fill="#ffffff" text-anchor="middle">E</text>
<path d="M 268.0,147.0 L 164.0,147.0 L 164.0,229.2 L 60.0,229.2" fill="none" stroke="#5b7a9d" stroke-width="1.6"/>
<polygon points="60.0,229.2 67.3,226.0 67.3,232.5" fill="#5b7a9d"/>
<path d="M 268.0,229.2 L 164.0,229.2 L 164.0,311.5 L 60.0,311.5" fill="none" stroke="#5b7a9d" stroke-width="1.6"/>
<polygon points="60.0,311.5 67.3,308.2 67.3,314.8" fill="#5b7a9d"/>
<path d="M 268.0,311.5 L 290.0,311.5 L 290.0,154.8 L 312.0,154.8" fill="none" stroke="#5b7a9d" stroke-width="1.6"/>
<polygon points="312.0,154.8 304.7,158.0 304.7,151.5" fill="#5b7a9d"/>
<path d="M 572.0,154.8 L 938.0,154.8 L 938.0,147.0 L 1304.0,147.0" fill="none" stroke="#5b7a9d" stroke-width="1.6"/>
<polygon points="1304.0,147.0 1296.7,150.3 1296.7,143.7" fill="#5b7a9d"/>
<path d="M 572.0,154.8 L 594.0,154.8 L 594.0,537.5 L 616.0,537.5" fill="none" stroke="#5b7a9d" stroke-width="1.6"/>
<polygon points="616.0,537.5 608.7,540.8 608.7,534.2" fill="#5b7a9d"/>
<path d="M 1588.0,147.0 L 1102.0,147.0 L 1102.0,537.5 L 616.0,537.5" fill="none" stroke="#5b7a9d" stroke-width="1.6"/>
<polygon points="616.0,537.5 623.3,534.2 623.3,540.8" fill="#5b7a9d"/>
<path d="M 268.0,401.5 L 442.0,401.5 L 442.0,1211.2 L 616.0,1211.2" fill="none" stroke="#5b7a9d" stroke-width="1.6"/>
<polygon points="616.0,1211.2 608.7,1214.5 608.7,1208.0" fill="#5b7a9d"/>
<rect x="413.8" y="1194.25" width="56.4" height="15" rx="3" fill="#ffffff" opacity="0.94"/><text x="442.0" y="1205.75" font-size="10" fill="#5b7a9d" text-anchor="middle">企业资料</text>
<path d="M 908.0,537.5 L 930.0,537.5 L 930.0,553.0 L 952.0,553.0" fill="none" stroke="#5b7a9d" stroke-width="1.6"/>
<polygon points="952.0,553.0 944.7,556.3 944.7,549.7" fill="#5b7a9d"/>
<path d="M 908.0,537.5 L 762.0,537.5 L 762.0,635.2 L 616.0,635.2" fill="none" stroke="#5b7a9d" stroke-width="1.6"/>
<polygon points="616.0,635.2 623.3,632.0 623.3,638.5" fill="#5b7a9d"/>
<path d="M 908.0,635.2 L 930.0,635.2 L 930.0,674.0 L 952.0,674.0" fill="none" stroke="#5b7a9d" stroke-width="1.6"/>
<polygon points="952.0,674.0 944.7,677.3 944.7,670.7" fill="#5b7a9d"/>
<path d="M 1260.0,553.0 L 1106.0,553.0 L 1106.0,674.0 L 952.0,674.0" fill="none" stroke="#5b7a9d" stroke-width="1.6"/>
<polygon points="952.0,674.0 959.3,670.7 959.3,677.3" fill="#5b7a9d"/>
<path d="M 1260.0,674.0 L 1106.0,674.0 L 1106.0,787.2 L 952.0,787.2" fill="none" stroke="#5b7a9d" stroke-width="1.6"/>
<polygon points="952.0,787.2 959.3,784.0 959.3,790.5" fill="#5b7a9d"/>
<path d="M 1260.0,674.0 L 938.0,674.0 L 938.0,733.0 L 616.0,733.0" fill="none" stroke="#5b7a9d" stroke-width="1.6"/>
<polygon points="616.0,733.0 623.3,729.7 623.3,736.3" fill="#5b7a9d"/>
<path d="M 1260.0,787.2 L 938.0,787.2 L 938.0,938.8 L 616.0,938.8" fill="none" stroke="#5b7a9d" stroke-width="1.6"/>
<polygon points="616.0,938.8 623.3,935.5 623.3,942.0" fill="#5b7a9d"/>
<rect x="904.0" y="921.75" width="68.0" height="15" rx="3" fill="#ffffff" opacity="0.94"/><text x="938.0" y="933.25" font-size="10" fill="#5b7a9d" text-anchor="middle">结构/评分</text>
<path d="M 1260.0,553.0 L 938.0,553.0 L 938.0,938.8 L 616.0,938.8" fill="none" stroke="#5b7a9d" stroke-width="1.6"/>
<polygon points="616.0,938.8 623.3,935.5 623.3,942.0" fill="#5b7a9d"/>
<rect x="921.4" y="921.75" width="33.2" height="15" rx="3" fill="#ffffff" opacity="0.94"/><text x="938.0" y="933.25" font-size="10" fill="#5b7a9d" text-anchor="middle">要求</text>
<path d="M 908.0,733.0 L 762.0,733.0 L 762.0,1044.2 L 616.0,1044.2" fill="none" stroke="#5b7a9d" stroke-width="1.6"/>
<polygon points="616.0,1044.2 623.3,1041.0 623.3,1047.5" fill="#5b7a9d"/>
<rect x="716.4" y="1027.25" width="91.2" height="15" rx="3" fill="#ffffff" opacity="0.94"/><text x="762.0" y="1038.75" font-size="10" fill="#5b7a9d" text-anchor="middle">项目名/招标人</text>
<path d="M 908.0,938.8 L 762.0,938.8 L 762.0,1044.2 L 616.0,1044.2" fill="none" stroke="#5b7a9d" stroke-width="1.6"/>
<polygon points="616.0,1044.2 623.3,1041.0 623.3,1047.5" fill="#5b7a9d"/>
<rect x="745.4" y="1027.25" width="33.2" height="15" rx="3" fill="#ffffff" opacity="0.94"/><text x="762.0" y="1038.75" font-size="10" fill="#5b7a9d" text-anchor="middle">通过</text>
<path d="M 908.0,1044.2 L 930.0,1044.2 L 930.0,938.8 L 952.0,938.8" fill="none" stroke="#5b7a9d" stroke-width="1.6"/>
<polygon points="952.0,938.8 944.7,942.0 944.7,935.5" fill="#5b7a9d"/>
<rect x="907.6" y="921.75" width="44.8" height="15" rx="3" fill="#ffffff" opacity="0.94"/><text x="930.0" y="933.25" font-size="10" fill="#5b7a9d" text-anchor="middle">底稿源</text>
<path d="M 1260.0,938.8 L 1106.0,938.8 L 1106.0,1052.0 L 952.0,1052.0" fill="none" stroke="#5b7a9d" stroke-width="1.6"/>
<polygon points="952.0,1052.0 959.3,1048.7 959.3,1055.3" fill="#5b7a9d"/>
<path d="M 1260.0,1052.0 L 1282.0,1052.0 L 1282.0,938.8 L 1304.0,938.8" fill="none" stroke="#5b7a9d" stroke-width="1.6"/>
<polygon points="1304.0,938.8 1296.7,942.0 1296.7,935.5" fill="#5b7a9d"/>
<path d="M 1588.0,938.8 L 1102.0,938.8 L 1102.0,1211.2 L 616.0,1211.2" fill="none" stroke="#5b7a9d" stroke-width="1.6"/>
<polygon points="616.0,1211.2 623.3,1208.0 623.3,1214.5" fill="#5b7a9d"/>
<path d="M 908.0,1211.2 L 762.0,1211.2 L 762.0,1316.8 L 616.0,1316.8" fill="none" stroke="#5b7a9d" stroke-width="1.6"/>
<polygon points="616.0,1316.8 623.3,1313.5 623.3,1320.0" fill="#5b7a9d"/>
<path d="M 908.0,1316.8 L 762.0,1316.8 L 762.0,1422.2 L 616.0,1422.2" fill="none" stroke="#5b7a9d" stroke-width="1.6"/>
<polygon points="616.0,1422.2 623.3,1419.0 623.3,1425.5" fill="#5b7a9d"/>
<path d="M 908.0,1422.2 L 610.0,1422.2 L 610.0,1566.0 L 312.0,1566.0" fill="none" stroke="#5b7a9d" stroke-width="1.6"/>
<polygon points="312.0,1566.0 319.3,1562.7 319.3,1569.3" fill="#5b7a9d"/>
<path d="M 572.0,1566.0 L 594.0,1566.0 L 594.0,1589.2 L 616.0,1589.2" fill="none" stroke="#5b7a9d" stroke-width="1.6"/>
<polygon points="616.0,1589.2 608.7,1592.5 608.7,1586.0" fill="#5b7a9d"/>
<path d="M 908.0,1589.2 L 762.0,1589.2 L 762.0,1702.5 L 616.0,1702.5" fill="none" stroke="#5b7a9d" stroke-width="1.6"/>
<polygon points="616.0,1702.5 623.3,1699.2 623.3,1705.8" fill="#5b7a9d"/>
<path d="M 908.0,1702.5 L 610.0,1702.5 L 610.0,1656.0 L 312.0,1656.0" fill="none" stroke="#5b7a9d" stroke-width="1.6"/>
<polygon points="312.0,1656.0 319.3,1652.7 319.3,1659.3" fill="#5b7a9d"/>
<path d="M 572.0,1656.0 L 316.0,1656.0 L 316.0,1566.0 L 60.0,1566.0" fill="none" stroke="#5b7a9d" stroke-width="1.6"/>
<polygon points="60.0,1566.0 67.3,1562.7 67.3,1569.3" fill="#5b7a9d"/>
<path d="M 572.0,154.8 L 316.0,154.8 L 316.0,147.0 L 60.0,147.0" fill="none" stroke="#c0392b" stroke-width="1.6" stroke-dasharray="6 4"/>
<polygon points="60.0,147.0 67.3,143.7 67.3,150.3" fill="#c0392b"/>
<rect x="247.2" y="130.0" width="137.6" height="15" rx="3" fill="#ffffff" opacity="0.94"/><text x="316.0" y="141.5" font-size="10" fill="#c0392b" text-anchor="middle">解析失败 · 拒绝上传</text>
<path d="M 908.0,938.8 L 484.0,938.8 L 484.0,147.0 L 60.0,147.0" fill="none" stroke="#c0392b" stroke-width="1.6" stroke-dasharray="6 4"/>
<polygon points="60.0,147.0 67.3,143.7 67.3,150.3" fill="#c0392b"/>
<rect x="409.4" y="130.0" width="149.2" height="15" rx="3" fill="#ffffff" opacity="0.94"/><text x="484.0" y="141.5" font-size="10" fill="#c0392b" text-anchor="middle">0 要求 · 指引回解析</text>
<path d="M 1260.0,938.8 L 1106.0,938.8 L 1106.0,1052.0 L 952.0,1052.0" fill="none" stroke="#c07800" stroke-width="1.6" stroke-dasharray="6 4"/>
<polygon points="952.0,1052.0 959.3,1048.7 959.3,1055.3" fill="#c07800"/>
<rect x="1037.2" y="1035.0" width="137.6" height="15" rx="3" fill="#ffffff" opacity="0.94"/><text x="1106.0" y="1046.5" font-size="10" fill="#c07800" text-anchor="middle">质量门不达标 · 回退</text>
<path d="M 572.0,1753.8 L 316.0,1753.8 L 316.0,147.0 L 60.0,147.0" fill="none" stroke="#c0392b" stroke-width="1.6" stroke-dasharray="6 4"/>
<polygon points="60.0,147.0 67.3,143.7 67.3,150.3" fill="#c0392b"/>
<rect x="258.8" y="130.0" width="114.39999999999999" height="15" rx="3" fill="#ffffff" opacity="0.94"/><text x="316.0" y="141.5" font-size="10" fill="#c0392b" text-anchor="middle">无底稿 · 409</text>
<path d="M 1260,543.0 C 1286,543.0 1286,563.0 1260,563.0" fill="none" stroke="#c07800" stroke-width="1.6" stroke-dasharray="6 4"/>
<text x="1293" y="556.5" font-size="10" fill="#c07800">JSON/529 重试</text>
</svg>